<svg id="그룹_23893" data-name="그룹 23893" xmlns="http://www.w3.org/2000/svg" width="178" height="152" viewBox="0 0 178 152">
  <rect id="사각형_29972" data-name="사각형 29972" width="178" height="152" fill="none"/>
  <g id="그룹_23892" data-name="그룹 23892" transform="translate(39.122 26.174)">
    <path id="패스_11461" data-name="패스 11461" d="M230.539,934.677a23.5,23.5,0,0,0-20.286,36.183l-12.337,11.813,6.839,7.142,12.474-11.943a23.585,23.585,0,0,0,12.807,3.805l.386,0a23.5,23.5,0,0,0,.119-47Zm8.9,33.33a13.614,13.614,0,1,1-9.423-23.448c.1,0,.2,0,.3,0a13.614,13.614,0,0,1,9.12,23.445Z" transform="translate(-197.915 -890.33)" fill="#6662d9"/>
    <path id="패스_11462" data-name="패스 11462" d="M287.8,923.635l-23.546,10.322-11.513-26.263-25.357,11.115-12.7-28.98-9.057,3.97L222.3,931.835l25.357-11.115,11.513,26.263,23.546-10.321,9.527,21.734,9.057-3.97Z" transform="translate(-198.001 -889.829)" fill="#6662d9"/>
  </g>
</svg>
